<svg width="142" height="28" viewBox="0 0 142 28" fill="none" xmlns="http://www.w3.org/2000/svg">
<path d="M0.658938 27V1.44H11.5669C12.7909 1.44 13.9069 1.692 14.9149 2.196C15.9469 2.676 16.8349 3.336 17.5789 4.176C18.3229 4.992 18.8989 5.916 19.3069 6.948C19.7149 7.98 19.9189 9.036 19.9189 10.116C19.9189 11.58 19.5709 12.972 18.8749 14.292C18.2029 15.612 17.2549 16.692 16.0309 17.532C14.8309 18.348 13.4029 18.756 11.7469 18.756H6.56294V27H0.658938ZM6.56294 13.608H11.3869C11.8429 13.608 12.2629 13.476 12.6469 13.212C13.0309 12.948 13.3429 12.552 13.5829 12.024C13.8229 11.496 13.9429 10.848 13.9429 10.08C13.9429 9.288 13.7989 8.64 13.5109 8.136C13.2469 7.608 12.8989 7.224 12.4669 6.984C12.0589 6.744 11.6269 6.624 11.1709 6.624H6.56294V13.608ZM22.5846 19.692V14.508H33.6726V19.692H22.5846ZM55.5724 6.624H47.7964V27H41.8924V6.624H34.0804V1.44H55.5724V6.624ZM57.9878 27V8.1H63.7478V27H57.9878ZM57.9878 5.94V0.719999H63.7478V5.94H57.9878ZM76.7269 27.36C75.1189 27.36 73.6909 27.096 72.4429 26.568C71.1949 26.04 70.1269 25.32 69.2389 24.408C68.3749 23.496 67.7149 22.452 67.2589 21.276C66.8029 20.1 66.5749 18.852 66.5749 17.532C66.5749 15.804 66.9709 14.196 67.7629 12.708C68.5789 11.22 69.7429 10.02 71.2549 9.108C72.7669 8.196 74.5909 7.74 76.7269 7.74C78.8869 7.74 80.7109 8.208 82.1989 9.144C83.7109 10.056 84.8389 11.256 85.5829 12.744L79.9669 14.436C79.6069 13.86 79.1389 13.416 78.5629 13.104C78.0109 12.792 77.3869 12.636 76.6909 12.636C75.8989 12.636 75.1789 12.84 74.5309 13.248C73.9069 13.656 73.4029 14.22 73.0189 14.94C72.6589 15.66 72.4789 16.524 72.4789 17.532C72.4789 18.516 72.6709 19.38 73.0549 20.124C73.4389 20.868 73.9429 21.456 74.5669 21.888C75.1909 22.296 75.8989 22.5 76.6909 22.5C77.1709 22.5 77.6149 22.428 78.0229 22.284C78.4549 22.116 78.8389 21.888 79.1749 21.6C79.5349 21.312 79.8109 20.988 80.0029 20.628L85.6189 22.356C85.1629 23.316 84.5029 24.18 83.6389 24.948C82.7989 25.692 81.8029 26.28 80.6509 26.712C79.4989 27.144 78.1909 27.36 76.7269 27.36ZM100.93 27L95.9982 19.44L93.9822 21.492V27H88.2222V0.719999H93.9822V15.912L100.39 8.1H106.474L99.6702 16.236L107.05 27H100.93ZM116.805 27.36C115.197 27.36 113.769 27.108 112.521 26.604C111.273 26.076 110.205 25.368 109.317 24.48C108.453 23.592 107.793 22.572 107.337 21.42C106.881 20.244 106.653 19.02 106.653 17.748C106.653 15.924 107.049 14.268 107.841 12.78C108.657 11.268 109.821 10.056 111.333 9.144C112.845 8.208 114.669 7.74 116.805 7.74C118.941 7.74 120.753 8.196 122.241 9.108C123.753 10.02 124.905 11.22 125.697 12.708C126.489 14.172 126.885 15.768 126.885 17.496C126.885 17.832 126.861 18.168 126.813 18.504C126.789 18.816 126.765 19.092 126.741 19.332H112.773C112.845 20.172 113.073 20.88 113.457 21.456C113.865 22.032 114.381 22.476 115.005 22.788C115.629 23.076 116.289 23.22 116.985 23.22C117.849 23.22 118.653 23.016 119.397 22.608C120.165 22.2 120.693 21.648 120.981 20.952L125.877 22.32C125.397 23.304 124.713 24.18 123.825 24.948C122.961 25.692 121.929 26.28 120.729 26.712C119.553 27.144 118.245 27.36 116.805 27.36ZM112.629 15.804H120.837C120.741 15.012 120.513 14.328 120.153 13.752C119.793 13.152 119.313 12.696 118.713 12.384C118.113 12.048 117.453 11.88 116.733 11.88C115.989 11.88 115.317 12.048 114.717 12.384C114.141 12.696 113.673 13.152 113.313 13.752C112.953 14.328 112.725 15.012 112.629 15.804ZM141.525 25.992C140.997 26.208 140.409 26.424 139.761 26.64C139.137 26.856 138.477 27.024 137.781 27.144C137.085 27.288 136.401 27.36 135.729 27.36C134.769 27.36 133.881 27.204 133.065 26.892C132.273 26.556 131.637 26.016 131.157 25.272C130.701 24.528 130.473 23.544 130.473 22.32V12.456H128.061V8.1H130.473V2.088H136.233V8.1H140.085V12.456H136.233V20.34C136.233 20.964 136.389 21.42 136.701 21.708C137.013 21.972 137.409 22.104 137.889 22.104C138.297 22.104 138.729 22.032 139.185 21.888C139.665 21.744 140.073 21.588 140.409 21.42L141.525 25.992Z" fill="#030712"/>
</svg>
